<mxfile host="app.diagrams.net" modified="2022-07-25T13:43:33.467Z" agent="5.0 (Windows NT 10.0; Win64; x64) AppleWebKit/537.36 (KHTML, like Gecko) Chrome/103.0.0.0 Safari/537.36" etag="IivM3IBO0GZeN5_X_z_f" version="20.2.0" type="github">
  <diagram id="C5RBs43oDa-KdzZeNtuy" name="Page-1">
    <mxGraphModel dx="920" dy="585" grid="1" gridSize="10" guides="1" tooltips="1" connect="1" arrows="1" fold="1" page="1" pageScale="1" pageWidth="827" pageHeight="1169" math="0" shadow="0">
      <root>
        <mxCell id="WIyWlLk6GJQsqaUBKTNV-0" />
        <mxCell id="WIyWlLk6GJQsqaUBKTNV-1" parent="WIyWlLk6GJQsqaUBKTNV-0" />
        <mxCell id="v9IfcN2WuElAM6daRwOJ-13" style="edgeStyle=orthogonalEdgeStyle;rounded=0;orthogonalLoop=1;jettySize=auto;html=1;" edge="1" parent="WIyWlLk6GJQsqaUBKTNV-1" source="WIyWlLk6GJQsqaUBKTNV-6" target="v9IfcN2WuElAM6daRwOJ-0">
          <mxGeometry relative="1" as="geometry" />
        </mxCell>
        <mxCell id="v9IfcN2WuElAM6daRwOJ-14" style="edgeStyle=orthogonalEdgeStyle;rounded=0;orthogonalLoop=1;jettySize=auto;html=1;entryX=0;entryY=0.5;entryDx=0;entryDy=0;" edge="1" parent="WIyWlLk6GJQsqaUBKTNV-1" source="WIyWlLk6GJQsqaUBKTNV-6" target="WIyWlLk6GJQsqaUBKTNV-7">
          <mxGeometry relative="1" as="geometry" />
        </mxCell>
        <mxCell id="WIyWlLk6GJQsqaUBKTNV-6" value="compiled error?" style="rhombus;whiteSpace=wrap;html=1;shadow=0;fontFamily=Helvetica;fontSize=12;align=center;strokeWidth=1;spacing=6;spacingTop=-4;" parent="WIyWlLk6GJQsqaUBKTNV-1" vertex="1">
          <mxGeometry x="170" y="150" width="100" height="80" as="geometry" />
        </mxCell>
        <mxCell id="WIyWlLk6GJQsqaUBKTNV-7" value="Halt" style="rounded=1;whiteSpace=wrap;html=1;fontSize=12;glass=0;strokeWidth=1;shadow=0;" parent="WIyWlLk6GJQsqaUBKTNV-1" vertex="1">
          <mxGeometry x="310" y="170" width="120" height="40" as="geometry" />
        </mxCell>
        <mxCell id="v9IfcN2WuElAM6daRwOJ-19" style="edgeStyle=orthogonalEdgeStyle;rounded=0;orthogonalLoop=1;jettySize=auto;html=1;" edge="1" parent="WIyWlLk6GJQsqaUBKTNV-1" source="v9IfcN2WuElAM6daRwOJ-0" target="v9IfcN2WuElAM6daRwOJ-18">
          <mxGeometry relative="1" as="geometry" />
        </mxCell>
        <mxCell id="v9IfcN2WuElAM6daRwOJ-0" value="use a parser to get the syntax tree" style="rounded=1;whiteSpace=wrap;html=1;" vertex="1" parent="WIyWlLk6GJQsqaUBKTNV-1">
          <mxGeometry x="160" y="260" width="120" height="60" as="geometry" />
        </mxCell>
        <mxCell id="v9IfcN2WuElAM6daRwOJ-25" value="" style="edgeStyle=orthogonalEdgeStyle;rounded=0;orthogonalLoop=1;jettySize=auto;html=1;" edge="1" parent="WIyWlLk6GJQsqaUBKTNV-1" source="v9IfcN2WuElAM6daRwOJ-6" target="v9IfcN2WuElAM6daRwOJ-24">
          <mxGeometry relative="1" as="geometry" />
        </mxCell>
        <mxCell id="v9IfcN2WuElAM6daRwOJ-6" value="generate &lt;br&gt;couter-example" style="rounded=1;whiteSpace=wrap;html=1;" vertex="1" parent="WIyWlLk6GJQsqaUBKTNV-1">
          <mxGeometry x="157.5" y="450" width="125" height="60" as="geometry" />
        </mxCell>
        <mxCell id="v9IfcN2WuElAM6daRwOJ-12" style="edgeStyle=orthogonalEdgeStyle;rounded=0;orthogonalLoop=1;jettySize=auto;html=1;" edge="1" parent="WIyWlLk6GJQsqaUBKTNV-1" source="v9IfcN2WuElAM6daRwOJ-11" target="WIyWlLk6GJQsqaUBKTNV-6">
          <mxGeometry relative="1" as="geometry" />
        </mxCell>
        <mxCell id="v9IfcN2WuElAM6daRwOJ-11" value="input a program" style="rounded=1;whiteSpace=wrap;html=1;" vertex="1" parent="WIyWlLk6GJQsqaUBKTNV-1">
          <mxGeometry x="170" y="70" width="100" height="50" as="geometry" />
        </mxCell>
        <mxCell id="v9IfcN2WuElAM6daRwOJ-16" value="No" style="text;html=1;strokeColor=none;fillColor=none;align=center;verticalAlign=middle;whiteSpace=wrap;rounded=0;" vertex="1" parent="WIyWlLk6GJQsqaUBKTNV-1">
          <mxGeometry x="210" y="230" width="60" height="30" as="geometry" />
        </mxCell>
        <mxCell id="v9IfcN2WuElAM6daRwOJ-17" value="Yes" style="text;html=1;strokeColor=none;fillColor=none;align=center;verticalAlign=middle;whiteSpace=wrap;rounded=0;" vertex="1" parent="WIyWlLk6GJQsqaUBKTNV-1">
          <mxGeometry x="260" y="160" width="60" height="30" as="geometry" />
        </mxCell>
        <mxCell id="v9IfcN2WuElAM6daRwOJ-20" style="edgeStyle=orthogonalEdgeStyle;rounded=0;orthogonalLoop=1;jettySize=auto;html=1;entryX=0.5;entryY=0;entryDx=0;entryDy=0;" edge="1" parent="WIyWlLk6GJQsqaUBKTNV-1" source="v9IfcN2WuElAM6daRwOJ-18" target="v9IfcN2WuElAM6daRwOJ-6">
          <mxGeometry relative="1" as="geometry" />
        </mxCell>
        <mxCell id="v9IfcN2WuElAM6daRwOJ-21" style="edgeStyle=orthogonalEdgeStyle;rounded=0;orthogonalLoop=1;jettySize=auto;html=1;entryX=0.5;entryY=1;entryDx=0;entryDy=0;" edge="1" parent="WIyWlLk6GJQsqaUBKTNV-1" source="v9IfcN2WuElAM6daRwOJ-18" target="WIyWlLk6GJQsqaUBKTNV-7">
          <mxGeometry relative="1" as="geometry">
            <mxPoint x="360" y="380" as="targetPoint" />
          </mxGeometry>
        </mxCell>
        <mxCell id="v9IfcN2WuElAM6daRwOJ-18" value="program ends?" style="rhombus;whiteSpace=wrap;html=1;" vertex="1" parent="WIyWlLk6GJQsqaUBKTNV-1">
          <mxGeometry x="170" y="340" width="100" height="80" as="geometry" />
        </mxCell>
        <mxCell id="v9IfcN2WuElAM6daRwOJ-22" value="Yes" style="text;html=1;strokeColor=none;fillColor=none;align=center;verticalAlign=middle;whiteSpace=wrap;rounded=0;" vertex="1" parent="WIyWlLk6GJQsqaUBKTNV-1">
          <mxGeometry x="290" y="350" width="60" height="30" as="geometry" />
        </mxCell>
        <mxCell id="v9IfcN2WuElAM6daRwOJ-23" value="No" style="text;html=1;strokeColor=none;fillColor=none;align=center;verticalAlign=middle;whiteSpace=wrap;rounded=0;" vertex="1" parent="WIyWlLk6GJQsqaUBKTNV-1">
          <mxGeometry x="210" y="420" width="60" height="30" as="geometry" />
        </mxCell>
        <mxCell id="v9IfcN2WuElAM6daRwOJ-29" value="" style="edgeStyle=orthogonalEdgeStyle;rounded=0;orthogonalLoop=1;jettySize=auto;html=1;" edge="1" parent="WIyWlLk6GJQsqaUBKTNV-1" source="v9IfcN2WuElAM6daRwOJ-24" target="v9IfcN2WuElAM6daRwOJ-28">
          <mxGeometry relative="1" as="geometry" />
        </mxCell>
        <mxCell id="v9IfcN2WuElAM6daRwOJ-33" style="edgeStyle=orthogonalEdgeStyle;rounded=0;orthogonalLoop=1;jettySize=auto;html=1;entryX=0.5;entryY=0;entryDx=0;entryDy=0;" edge="1" parent="WIyWlLk6GJQsqaUBKTNV-1" source="v9IfcN2WuElAM6daRwOJ-24" target="v9IfcN2WuElAM6daRwOJ-32">
          <mxGeometry relative="1" as="geometry" />
        </mxCell>
        <mxCell id="v9IfcN2WuElAM6daRwOJ-24" value="can the counter-example be true?" style="rhombus;whiteSpace=wrap;html=1;" vertex="1" parent="WIyWlLk6GJQsqaUBKTNV-1">
          <mxGeometry x="155" y="530" width="130" height="90" as="geometry" />
        </mxCell>
        <mxCell id="v9IfcN2WuElAM6daRwOJ-27" value="No" style="text;html=1;strokeColor=none;fillColor=none;align=center;verticalAlign=middle;whiteSpace=wrap;rounded=0;" vertex="1" parent="WIyWlLk6GJQsqaUBKTNV-1">
          <mxGeometry x="170" y="620" width="60" height="30" as="geometry" />
        </mxCell>
        <mxCell id="v9IfcN2WuElAM6daRwOJ-34" style="edgeStyle=orthogonalEdgeStyle;rounded=0;orthogonalLoop=1;jettySize=auto;html=1;entryX=1;entryY=0.5;entryDx=0;entryDy=0;" edge="1" parent="WIyWlLk6GJQsqaUBKTNV-1" source="v9IfcN2WuElAM6daRwOJ-28" target="v9IfcN2WuElAM6daRwOJ-32">
          <mxGeometry relative="1" as="geometry">
            <Array as="points">
              <mxPoint x="369" y="670" />
            </Array>
          </mxGeometry>
        </mxCell>
        <mxCell id="v9IfcN2WuElAM6daRwOJ-28" value="find an error" style="rounded=1;whiteSpace=wrap;html=1;" vertex="1" parent="WIyWlLk6GJQsqaUBKTNV-1">
          <mxGeometry x="324" y="550" width="90" height="50" as="geometry" />
        </mxCell>
        <mxCell id="v9IfcN2WuElAM6daRwOJ-30" value="Yes" style="text;html=1;strokeColor=none;fillColor=none;align=center;verticalAlign=middle;whiteSpace=wrap;rounded=0;" vertex="1" parent="WIyWlLk6GJQsqaUBKTNV-1">
          <mxGeometry x="270" y="550" width="60" height="30" as="geometry" />
        </mxCell>
        <mxCell id="v9IfcN2WuElAM6daRwOJ-35" style="edgeStyle=orthogonalEdgeStyle;rounded=0;orthogonalLoop=1;jettySize=auto;html=1;entryX=0;entryY=0.5;entryDx=0;entryDy=0;" edge="1" parent="WIyWlLk6GJQsqaUBKTNV-1" source="v9IfcN2WuElAM6daRwOJ-32" target="v9IfcN2WuElAM6daRwOJ-18">
          <mxGeometry relative="1" as="geometry">
            <Array as="points">
              <mxPoint x="90" y="670" />
              <mxPoint x="90" y="380" />
            </Array>
          </mxGeometry>
        </mxCell>
        <mxCell id="v9IfcN2WuElAM6daRwOJ-32" value="go to the next line" style="rounded=1;whiteSpace=wrap;html=1;" vertex="1" parent="WIyWlLk6GJQsqaUBKTNV-1">
          <mxGeometry x="167.5" y="650" width="105" height="40" as="geometry" />
        </mxCell>
      </root>
    </mxGraphModel>
  </diagram>
</mxfile>
